<svg xmlns="http://www.w3.org/2000/svg" xml:space="preserve" style="fill-rule:evenodd;clip-rule:evenodd;stroke-linejoin:round;stroke-miterlimit:2" viewBox="0 0 1080 1080"><path d="M130.671 278.618c0-4.148 1.77-8.126 4.921-11.059 3.151-2.933 7.425-4.581 11.881-4.581h274.935l97.744 93.002h358.991c9.279 0 16.802 7.003 16.802 15.64v353.252c0 8.638-7.523 15.64-16.802 15.64h-731.67c-4.456 0-8.73-1.648-11.881-4.581-3.151-2.933-4.921-6.911-4.921-11.059V278.618ZM644.493 603.72c-1.545 1.438-2.318 2.876-2.318 5.034 0 5.393 5.021 11.865 11.974 11.865 5.022 0 8.498-3.596 11.975-6.832l69.914-65.796c2.318-2.517 3.863-6.472 3.863-10.427-.387-3.955-1.545-7.91-4.249-10.427l-71.46-65.797c-3.476-3.235-6.18-6.112-10.815-6.112-6.181 0-11.588 4.674-11.588 10.067 0 2.517 1.159 4.675 3.476 7.191l71.073 66.516-71.845 64.718Zm-161.626 12.717 85.751-154.207c2.318-3.586-1.931-7.002-12.36-7.002-6.18 0-11.202 1.879-12.361 4.27L457.76 613.705c-4.249 7.343 21.631 9.734 25.107 2.732ZM382.123 603.72l-71.846-64.718 71.074-66.516c2.317-2.516 3.476-4.674 3.476-7.191 0-5.393-5.408-10.067-11.588-10.067-4.635 0-7.339 2.877-10.815 6.112l-71.46 65.797c-2.704 2.517-3.863 6.472-4.249 10.427 0 3.955 1.545 7.91 3.863 10.427l69.914 65.796c3.477 3.236 6.953 6.832 11.974 6.832 6.953 0 11.975-6.472 11.975-11.865 0-2.158-.773-3.596-2.318-5.034Z" style="fill:url(#a)" transform="matrix(1.33501 0 0 1.43423 -145.27 -179.619)"/><defs><radialGradient id="a" cx="0" cy="0" r="1" gradientTransform="matrix(541.783 -331.345 355.973 504.301 210.426 661.529)" gradientUnits="userSpaceOnUse"><stop offset="0" style="stop-color:#9200ff;stop-opacity:1"/><stop offset=".29" style="stop-color:#6e1eff;stop-opacity:1"/><stop offset=".6" style="stop-color:#0972ff;stop-opacity:1"/><stop offset="1" style="stop-color:#4b00ff;stop-opacity:1"/></radialGradient></defs></svg>