<?xml version="1.0" encoding="UTF-8" standalone="no"?>
<!DOCTYPE svg PUBLIC "-//W3C//DTD SVG 1.1//EN" "http://www.w3.org/Graphics/SVG/1.1/DTD/svg11.dtd">
<svg width="100%" height="100%" viewBox="0 0 1080 1080" version="1.1" xmlns="http://www.w3.org/2000/svg" xmlns:xlink="http://www.w3.org/1999/xlink" xml:space="preserve" xmlns:serif="http://www.serif.com/" style="fill-rule:evenodd;clip-rule:evenodd;stroke-linejoin:round;stroke-miterlimit:2;">
    <path d="M0,160C0,138.783 8.429,118.434 23.431,103.431C38.434,88.429 58.783,80 80,80L445.046,80L576.195,237.657L1000,237.657C1021.22,237.657 1041.57,246.085 1056.57,261.088C1071.57,276.091 1080,296.439 1080,317.657L1080,920C1080,964.183 1044.18,1000 1000,1000L80,1000C35.817,1000 0,964.183 -0,920L0,160ZM762.935,728.121C760.309,730.746 758.996,733.372 758.996,737.31C758.996,747.157 767.53,758.972 779.345,758.972C787.879,758.972 793.787,752.408 799.694,746.5L918.507,626.375C922.445,621.78 925.071,614.56 925.071,607.339C924.414,600.118 922.445,592.898 917.85,588.303L796.412,468.178C790.504,462.27 785.91,457.019 778.032,457.019C767.53,457.019 758.34,465.552 758.34,475.398C758.34,479.993 760.309,483.932 764.248,488.527L885.029,609.965L762.935,728.121ZM317.065,728.121L194.971,609.965L315.752,488.527C319.691,483.932 321.66,479.993 321.66,475.398C321.66,465.552 312.47,457.019 301.968,457.019C294.09,457.019 289.496,462.27 283.588,468.178L162.15,588.303C157.555,592.898 155.586,600.118 154.929,607.339C154.929,614.56 157.555,621.78 161.493,626.375L280.306,746.5C286.213,752.408 292.121,758.972 300.655,758.972C312.47,758.972 321.004,747.157 321.004,737.31C321.004,733.372 319.691,730.746 317.065,728.121ZM488.269,751.338L633.995,469.802C637.933,463.254 630.712,457.019 612.989,457.019C602.486,457.019 593.953,460.448 591.984,464.813L445.602,746.349C438.381,759.756 482.361,764.121 488.269,751.338Z" style="fill:url(#_Radial1);"/>
    <defs>
        <radialGradient id="_Radial1" cx="0" cy="0" r="1" gradientUnits="userSpaceOnUse" gradientTransform="matrix(927.626,-616.791,657.467,860.291,93.0664,910.912)"><stop offset="0" style="stop-color:rgb(146,0,255);stop-opacity:1"/><stop offset="0.38" style="stop-color:rgb(121,21,255);stop-opacity:1"/><stop offset="0.52" style="stop-color:rgb(65,67,255);stop-opacity:1"/><stop offset="0.64" style="stop-color:rgb(9,114,255);stop-opacity:1"/><stop offset="1" style="stop-color:rgb(75,0,255);stop-opacity:1"/></radialGradient>
    </defs>
</svg>
